<svg width="48" height="48" viewBox="0 0 48 48" fill="none" xmlns="http://www.w3.org/2000/svg">
<path d="M40.5 9C40.8978 9 41.2794 9.15804 41.5607 9.43934C41.842 9.72064 42 10.1022 42 10.5V33H6V10.5C6 10.1022 6.15804 9.72064 6.43934 9.43934C6.72064 9.15804 7.10218 9 7.5 9H40.5ZM7.5 6C6.30653 6 5.16193 6.47411 4.31802 7.31802C3.47411 8.16193 3 9.30653 3 10.5V36H45V10.5C45 9.30653 44.5259 8.16193 43.682 7.31802C42.8381 6.47411 41.6935 6 40.5 6H7.5ZM0 37.5H48C48 38.6935 47.5259 39.8381 46.682 40.682C45.8381 41.5259 44.6935 42 43.5 42H4.5C3.30653 42 2.16193 41.5259 1.31802 40.682C0.474106 39.8381 0 38.6935 0 37.5Z" fill="#563665"/>
</svg>
